<svg width="16" height="16" viewBox="0 0 16 16" fill="none" xmlns="http://www.w3.org/2000/svg">
<rect width="16" height="16" rx="8" fill="#12130F"/>
<path d="M6.5006 13.397L8 10.8H3.149C3.88368 12.0706 5.08682 13.0028 6.5006 13.397ZM2.5764 9.4H5.5752L3.149 5.1993C2.65668 6.05047 2.39827 7.01672 2.4 8C2.4 8.483 2.4616 8.952 2.5764 9.4ZM4.0765 4.0044L5.5745 6.6L8 2.4C6.53207 2.39809 5.12249 2.97448 4.0765 4.0044ZM9.4994 2.603L8 5.2H12.851C12.1163 3.92942 10.9132 2.99715 9.4994 2.603ZM13.4236 6.6H10.4248L12.8503 10.8007C13.3428 9.94958 13.6015 8.98334 13.6 8C13.6005 7.52777 13.5412 7.05737 13.4236 6.6ZM11.9235 11.9956L10.4255 9.4L8 13.6C9.46793 13.6019 10.8775 13.0255 11.9235 11.9956ZM8 15C4.1339 15 1 11.8661 1 8C1 4.1339 4.1339 1 8 1C11.8661 1 15 4.1339 15 8C15 11.8661 11.8661 15 8 15ZM8.8085 6.6H7.1915L6.3837 8L7.1915 9.4H8.8085L9.6163 8L8.8085 6.6Z" fill="#FCFFFC"/>
</svg>
