<svg width="16" height="16" viewBox="0 0 16 16" fill="none" xmlns="http://www.w3.org/2000/svg">
<rect width="16" height="16" rx="8" fill="#12130F"/>
<path d="M3.55802 13C3.09628 13 2.83504 12.5247 3.11603 12.1957L6.63031 8.08217C6.78625 7.89967 6.78335 7.64522 6.62329 7.4656L3.36802 3.81233C3.07628 3.48493 3.33596 3 3.80299 3H4.612C4.78512 3 4.94841 3.07225 5.05382 3.19552L7.54955 6.1135C7.77211 6.37373 8.20886 6.37425 8.43222 6.1146L10.9443 3.1944C11.0497 3.0718 11.2126 3 11.3852 3H12.193C12.6604 3 12.9199 3.4856 12.6274 3.81288L9.37536 7.45162C9.21502 7.63105 9.21171 7.88555 9.3674 8.06825L12.8844 12.1963C13.1647 12.5253 12.9034 13 12.442 13H11.6432C11.4668 13 11.3007 12.925 11.1957 12.7977L8.43882 9.4579C8.2158 9.1877 7.76517 9.18823 7.5429 9.45893L4.80241 12.7967C4.69742 12.9245 4.53098 13 4.35402 13H3.55802Z" fill="#66DA66"/>
</svg>
