<svg width="16" height="16" viewBox="0 0 16 16" fill="none" xmlns="http://www.w3.org/2000/svg">
<g clip-path="url(#clip0_308_183)">
<rect width="16" height="16" rx="8" fill="#12130F"/>
<path d="M0.5 8.59211L2.63617 8.75585L2.7457 9.14022L1.08154 10.6328L0.987471 10.3027C1.02458 10.2693 1.05667 10.2388 1.08374 10.211C1.11109 10.1843 1.14101 10.1512 1.17352 10.1119C1.20631 10.0736 1.23322 10.0368 1.25425 10.0015C1.27643 9.96682 1.29709 9.92681 1.31621 9.88142C1.33533 9.83603 1.34815 9.79069 1.35467 9.74539C1.36208 9.69979 1.36427 9.64956 1.36127 9.59469C1.35826 9.53982 1.34853 9.48353 1.33209 9.42582C1.31565 9.36812 1.29429 9.31536 1.26804 9.26753C1.24206 9.22068 1.21422 9.18094 1.18452 9.14829C1.1557 9.11534 1.12111 9.08602 1.08076 9.06032C1.04157 9.0353 1.00422 9.015 0.968703 8.99945C0.933463 8.98487 0.8919 8.97196 0.844013 8.96073C0.79701 8.94918 0.755236 8.94065 0.718693 8.93513C0.683311 8.93028 0.64163 8.92548 0.593648 8.92073L0.5 8.59211ZM1.09453 8.96034C1.31336 9.02264 1.45219 9.15698 1.511 9.36334C1.56925 9.56776 1.52491 9.76498 1.37798 9.95502L2.13633 9.27723C2.27989 9.15719 2.39966 9.07127 2.49564 9.01947C2.36178 9.03718 2.21887 9.04193 2.06693 9.03369L1.09453 8.96034Z" fill="#C77DFF"/>
<path d="M1.31781 11.1154L2.95835 9.86321L3.13346 10.1444L2.791 11.3046C2.68059 11.6567 2.57455 11.9083 2.47287 12.0594L3.72901 11.1006L3.87809 11.3399L2.23756 12.5921L2.06639 12.3173C2.12809 12.2465 2.19296 12.1366 2.26101 11.9875C2.32982 11.8378 2.39568 11.6617 2.45861 11.4592L2.79669 10.3435L1.46847 11.3573L1.31781 11.1154Z" fill="#C77DFF"/>
<path d="M2.64194 13.0789L3.88272 11.3527L4.4003 11.8087C4.51846 11.9128 4.61442 12.0222 4.68819 12.137C4.76195 12.2518 4.8117 12.3638 4.83742 12.4729C4.86386 12.5827 4.87194 12.6934 4.86164 12.8049C4.85264 12.9162 4.82757 13.0219 4.78642 13.122C4.746 13.2227 4.69176 13.3204 4.62369 13.4151C4.55563 13.5098 4.48181 13.5902 4.40225 13.6564C4.32341 13.7233 4.23571 13.7745 4.13915 13.81C4.04388 13.8453 3.94496 13.8611 3.84237 13.8572C3.74051 13.854 3.63077 13.8255 3.51317 13.7717C3.39556 13.7179 3.27768 13.6389 3.15952 13.5348L2.64194 13.0789ZM3.02405 13.0538L3.30459 13.3009C3.51191 13.4835 3.70922 13.5623 3.89653 13.5373C4.08383 13.5122 4.24757 13.4022 4.38774 13.2072C4.45638 13.1117 4.50607 13.0146 4.5368 12.9158C4.56753 12.8171 4.57836 12.7172 4.5693 12.6161C4.56154 12.5149 4.52867 12.4133 4.47071 12.3111C4.41346 12.2095 4.33192 12.1121 4.22609 12.0189L3.94555 11.7718L3.02405 13.0538Z" fill="#C77DFF"/>
<path d="M4.46322 14.5475L5.21391 12.504L5.99526 12.8558C6.19092 12.9439 6.32619 13.0656 6.40108 13.2211C6.47717 13.3761 6.48329 13.5405 6.41942 13.7143C6.3929 13.7865 6.35714 13.8485 6.31214 13.9002C6.26715 13.9519 6.21792 13.9906 6.16445 14.0164C6.11099 14.0421 6.05318 14.0593 5.99103 14.0678C5.93009 14.0758 5.86954 14.0746 5.80939 14.0641C5.74923 14.0536 5.6904 14.0354 5.63291 14.0096C5.57026 13.9814 5.51697 13.9413 5.47303 13.8894C5.49348 13.9263 5.52581 13.9785 5.57001 14.046C5.61543 14.113 5.65537 14.173 5.68984 14.2262C5.72553 14.2788 5.76234 14.3446 5.80029 14.4237C5.83825 14.5028 5.86727 14.579 5.88736 14.6522C5.90831 14.7259 5.91983 14.8102 5.92192 14.9053C5.92435 14.9994 5.91354 15.0941 5.88947 15.1896L5.5947 15.0569C5.61645 14.9759 5.62548 14.8941 5.62178 14.8116C5.61893 14.7295 5.60558 14.6516 5.5817 14.5777C5.55783 14.5039 5.52914 14.4295 5.49564 14.3546C5.463 14.2802 5.4276 14.205 5.38946 14.1291C5.35253 14.0527 5.31817 13.9775 5.28638 13.9034C5.25546 13.8297 5.23015 13.7502 5.21047 13.6649C5.19113 13.5787 5.18253 13.4946 5.18468 13.4125L4.72453 14.6651L4.46322 14.5475ZM5.31294 13.0634C5.25081 13.2325 5.24815 13.3813 5.30494 13.5098C5.36259 13.6388 5.46608 13.7368 5.61539 13.8041C5.73554 13.8581 5.84437 13.8695 5.94191 13.8381C6.0403 13.8071 6.10869 13.7394 6.14708 13.6349C6.18651 13.5275 6.17982 13.426 6.12698 13.3302C6.07415 13.2345 5.98209 13.1571 5.85079 13.098L5.37837 12.8853L5.31294 13.0634Z" fill="#C77DFF"/>
<path d="M7.88619 15.3932C7.72424 15.4798 7.54404 15.5137 7.34558 15.495C7.14713 15.4762 6.97426 15.409 6.82699 15.2931C6.68064 15.1774 6.57263 15.0288 6.50295 14.8472C6.43427 14.6647 6.40825 14.4656 6.42487 14.25C6.44158 14.0334 6.49771 13.8421 6.59325 13.6762C6.6898 13.5093 6.81905 13.3825 6.981 13.2959C7.14295 13.2093 7.32361 13.1755 7.52299 13.1943C7.72145 13.2131 7.89385 13.2803 8.0402 13.396C8.18655 13.5118 8.29452 13.6609 8.36412 13.8435C8.4338 14.0251 8.46029 14.2242 8.44358 14.4408C8.42696 14.6564 8.37037 14.8477 8.27382 15.0145C8.17735 15.1804 8.04814 15.3066 7.88619 15.3932ZM6.72256 14.2782C6.70995 14.4417 6.72726 14.591 6.77448 14.7262C6.8217 14.8614 6.89682 14.9724 6.99983 15.0593C7.10292 15.1453 7.22554 15.1949 7.36769 15.2084C7.50891 15.2217 7.6369 15.1957 7.75165 15.1304C7.8664 15.0651 7.95744 14.9697 8.02475 14.8443C8.09299 14.719 8.13337 14.5751 8.1459 14.4127C8.1652 14.1623 8.11562 13.9492 7.99716 13.7733C7.87962 13.5975 7.71423 13.4995 7.50101 13.4794C7.28686 13.4592 7.10841 13.5246 6.96565 13.6758C6.82297 13.826 6.74194 14.0268 6.72256 14.2782Z" fill="#C77DFF"/>
<path d="M8.9124 15.4974L8.40298 13.3647L8.76973 13.2573L9.55178 14.365C9.6946 14.5778 9.79248 14.7449 9.84542 14.8662C9.83726 14.7318 9.84775 14.533 9.87689 14.2698L10.0594 12.8798L10.4289 12.7716L10.9383 14.9043L10.6871 14.9779L10.4093 13.8148C10.3385 13.5184 10.2955 13.3003 10.2803 13.1604L10.1109 14.5212C10.0734 14.8016 10.0595 15.0141 10.0691 15.1588L9.78026 15.2433C9.72221 15.1086 9.61567 14.9314 9.46063 14.7115L8.70308 13.6221C8.7523 13.752 8.81232 13.9652 8.88314 14.2616L9.16094 15.4246L8.9124 15.4974Z" fill="#C77DFF"/>
<path d="M11.4842 14.5792L10.4059 12.7241L11.6551 11.8342L11.7942 12.0736L10.7822 12.7945L11.4507 13.9445C11.4231 13.8629 11.4041 13.7801 11.3938 13.696C11.3843 13.6113 11.3857 13.5182 11.3983 13.4166C11.4108 13.315 11.4373 13.2174 11.4777 13.124C11.5189 13.03 11.5823 12.9343 11.6677 12.8368C11.7532 12.7394 11.8583 12.6511 11.9831 12.5719L12.129 12.8229C11.9923 12.9081 11.8793 13.0056 11.7901 13.1155C11.7016 13.2249 11.6396 13.338 11.6039 13.4548C11.5691 13.5711 11.553 13.6875 11.5557 13.8039C11.5586 13.9189 11.579 14.0336 11.6169 14.1481L12.595 13.4513L12.7334 13.6893L11.4842 14.5792Z" fill="#C77DFF"/>
<path d="M13.1566 13.2998L11.6535 11.8515L12.0877 11.2992C12.1869 11.1731 12.2899 11.0718 12.3967 10.9952C12.5035 10.9187 12.6068 10.8686 12.7064 10.845C12.8067 10.8206 12.9069 10.8165 13.0071 10.8328C13.1071 10.8476 13.2014 10.88 13.2899 10.9299C13.379 10.9791 13.4648 11.0434 13.5472 11.1228C13.6297 11.2023 13.6991 11.2874 13.7553 11.3783C13.8122 11.4685 13.8545 11.5677 13.8823 11.6761C13.91 11.783 13.9199 11.8931 13.9119 12.0064C13.9045 12.1189 13.8739 12.239 13.8202 12.3667C13.7665 12.4944 13.69 12.6213 13.5909 12.7474L13.1566 13.2998ZM13.1508 12.8761L13.3862 12.5767C13.5601 12.3554 13.6399 12.1407 13.6255 11.9324C13.6112 11.7242 13.5191 11.5382 13.3493 11.3746C13.2661 11.2945 13.1807 11.2353 13.0929 11.1969C13.0051 11.1586 12.9155 11.1422 12.8239 11.1478C12.7322 11.1519 12.639 11.1838 12.5442 11.2434C12.4501 11.3023 12.3586 11.3881 12.2698 11.5011L12.0344 11.8005L13.1508 12.8761Z" fill="#C77DFF"/>
<path d="M14.5199 11.3522L12.7831 10.2707L12.9214 9.99849L14.6582 11.08L14.5199 11.3522Z" fill="#C77DFF"/>
<path d="M14.9185 10.6577L13.2539 9.16663L13.3634 8.78226L15.5 8.61704L15.4059 8.94714C15.3582 8.95091 15.3161 8.95555 15.2796 8.96107C15.2433 8.96561 15.2017 8.97366 15.1547 8.9852C15.1079 8.99577 15.0668 9.00883 15.0313 9.02439C14.9952 9.03865 14.9575 9.0583 14.9183 9.08333C14.8791 9.10836 14.8451 9.13735 14.8163 9.1703C14.7866 9.20294 14.7588 9.24269 14.7328 9.28953C14.7068 9.33638 14.6856 9.38866 14.6692 9.44636C14.6527 9.50407 14.6429 9.56084 14.6396 9.61669C14.6366 9.67156 14.6388 9.7218 14.6462 9.7674C14.6527 9.81269 14.6658 9.85868 14.6855 9.90535C14.7047 9.95075 14.7247 9.99109 14.7458 10.0264C14.7671 10.0607 14.7944 10.0977 14.8278 10.1373C14.8603 10.1766 14.8901 10.2102 14.9172 10.2379C14.9436 10.2643 14.9753 10.2947 15.0121 10.3291L14.9185 10.6577ZM14.6224 9.97849C14.4755 9.78845 14.4315 9.59025 14.4903 9.38388C14.5485 9.17947 14.6871 9.04611 14.9059 8.98381L13.9335 9.05716C13.7537 9.06427 13.6111 9.05855 13.5056 9.04001C13.6244 9.11054 13.7439 9.19743 13.8641 9.3007L14.6224 9.97849Z" fill="#C77DFF"/>
<path d="M0.5 7.40789L2.63617 7.24415L2.7457 6.85978L1.08154 5.3672L0.987471 5.69729C1.02458 5.73068 1.05667 5.76124 1.08374 5.78898C1.11109 5.81574 1.14101 5.84877 1.17352 5.88808C1.20631 5.92642 1.23322 5.96324 1.25425 5.99854C1.27643 6.03318 1.29709 6.07319 1.31621 6.11858C1.33533 6.16397 1.34815 6.20931 1.35467 6.25461C1.36208 6.30021 1.36427 6.35044 1.36127 6.40531C1.35826 6.46018 1.34853 6.51647 1.33209 6.57418C1.31565 6.63188 1.29429 6.68465 1.26804 6.73247C1.24206 6.77932 1.21422 6.81906 1.18452 6.85171C1.1557 6.88466 1.12111 6.91398 1.08076 6.93968C1.04157 6.96471 1.00422 6.985 0.968703 7.00055C0.933463 7.01513 0.8919 7.02804 0.844013 7.03927C0.79701 7.05082 0.755236 7.05935 0.718693 7.06487C0.683311 7.06972 0.64163 7.07452 0.593648 7.07927L0.5 7.40789ZM1.09453 7.03966C1.31336 6.97736 1.45219 6.84302 1.511 6.63666C1.56925 6.43224 1.52491 6.23502 1.37798 6.04498L2.13633 6.72277C2.27989 6.84281 2.39966 6.92873 2.49564 6.98053C2.36178 6.96282 2.21887 6.95807 2.06693 6.96631L1.09453 7.03966Z" fill="#C77DFF"/>
<path d="M1.31781 4.88458L2.95835 6.13679L3.13346 5.85564L2.791 4.69545C2.68059 4.34335 2.57455 4.09174 2.47287 3.94063L3.72901 4.89944L3.87809 4.66008L2.23756 3.40786L2.06639 3.68269C2.12809 3.75345 2.19296 3.86339 2.26101 4.01249C2.32982 4.16218 2.39568 4.33827 2.45861 4.54077L2.79669 5.6565L1.46847 4.64268L1.31781 4.88458Z" fill="#C77DFF"/>
<path d="M2.64194 2.92111L3.88272 4.64727L4.4003 4.19132C4.51846 4.08724 4.61442 3.9778 4.68819 3.86301C4.76195 3.74822 4.8117 3.63625 4.83742 3.52709C4.86386 3.41729 4.87194 3.30664 4.86164 3.19513C4.85264 3.08379 4.82757 2.97809 4.78642 2.87803C4.746 2.77733 4.69176 2.67963 4.62369 2.58494C4.55563 2.49024 4.48181 2.40979 4.40225 2.34357C4.32341 2.27671 4.23571 2.22553 4.13915 2.19001C4.04388 2.15466 3.94496 2.13892 3.84237 2.14279C3.74051 2.14602 3.63077 2.17453 3.51317 2.22833C3.39556 2.28213 3.27768 2.36107 3.15952 2.46516L2.64194 2.92111ZM3.02405 2.94623L3.30459 2.6991C3.51191 2.51647 3.70922 2.43767 3.89653 2.46272C4.08383 2.48776 4.24757 2.59779 4.38774 2.79279C4.45638 2.88829 4.50607 2.98541 4.5368 3.08416C4.56753 3.18292 4.57836 3.28281 4.5693 3.38385C4.56154 3.48505 4.52867 3.58674 4.47071 3.68892C4.41346 3.79047 4.33192 3.88785 4.22609 3.98108L3.94555 4.22822L3.02405 2.94623Z" fill="#C77DFF"/>
<path d="M4.46322 1.45254L5.21391 3.49601L5.99526 3.14423C6.19092 3.05615 6.32619 2.93435 6.40108 2.77885C6.47717 2.62392 6.48329 2.45952 6.41942 2.28567C6.3929 2.21347 6.35714 2.15152 6.31214 2.09981C6.26715 2.04811 6.21792 2.00938 6.16445 1.98363C6.11099 1.95788 6.05318 1.94073 5.99103 1.93217C5.93009 1.92418 5.86954 1.92542 5.80939 1.9359C5.74923 1.94637 5.6904 1.96455 5.63291 1.99044C5.57026 2.01864 5.51697 2.05869 5.47303 2.11058C5.49348 2.07369 5.52581 2.0215 5.57001 1.95399C5.61543 1.88704 5.65537 1.82699 5.68984 1.77383C5.72553 1.72123 5.76234 1.65538 5.80029 1.5763C5.83825 1.49721 5.86727 1.42104 5.88736 1.34778C5.90831 1.27414 5.91983 1.18979 5.92192 1.09474C5.92435 1.00065 5.91354 0.905876 5.88947 0.810425L5.5947 0.943137C5.61645 1.02413 5.62548 1.10587 5.62178 1.18835C5.61893 1.27045 5.60558 1.34843 5.5817 1.42228C5.55783 1.49614 5.52914 1.5705 5.49564 1.64537C5.463 1.71985 5.4276 1.79502 5.38946 1.87086C5.35253 1.94728 5.31817 2.02253 5.28638 2.09663C5.25546 2.17034 5.23015 2.24982 5.21047 2.33507C5.19113 2.42128 5.18253 2.50541 5.18468 2.58748L4.72453 1.3349L4.46322 1.45254ZM5.31294 2.93661C5.25081 2.76751 5.24815 2.61869 5.30494 2.49016C5.36259 2.36124 5.46608 2.26317 5.61539 2.19595C5.73554 2.14186 5.84437 2.1305 5.94191 2.16187C6.0403 2.19286 6.10869 2.26061 6.14708 2.36511C6.18651 2.47246 6.17982 2.57401 6.12698 2.66976C6.07415 2.76551 5.98209 2.84294 5.85079 2.90205L5.37837 3.11473L5.31294 2.93661Z" fill="#C77DFF"/>
<path d="M7.88619 0.60677C7.72424 0.520175 7.54404 0.486254 7.34558 0.505008C7.14713 0.523762 6.97426 0.591048 6.82699 0.706865C6.68064 0.822596 6.57263 0.971244 6.50295 1.15281C6.43427 1.33531 6.40825 1.53436 6.42487 1.74997C6.44158 1.9666 6.49771 2.15789 6.59325 2.32384C6.6898 2.49073 6.81905 2.61747 6.981 2.70407C7.14295 2.79066 7.32361 2.82454 7.52299 2.8057C7.72145 2.78694 7.89385 2.7197 8.0402 2.60397C8.18655 2.48824 8.29452 2.33908 8.36412 2.15649C8.4338 1.97493 8.46029 1.77583 8.44358 1.5592C8.42696 1.34359 8.37037 1.15234 8.27382 0.985458C8.17735 0.819595 8.04814 0.693366 7.88619 0.60677ZM6.72256 1.72184C6.70995 1.55834 6.72726 1.40901 6.77448 1.27382C6.8217 1.13864 6.89682 1.02758 6.99983 0.940651C7.10292 0.854741 7.22554 0.805069 7.36769 0.791636C7.50891 0.77829 7.6369 0.804279 7.75165 0.869602C7.8664 0.934926 7.95744 1.03028 8.02475 1.15567C8.09299 1.28097 8.13337 1.42486 8.1459 1.58733C8.1652 1.83768 8.11562 2.0508 7.99716 2.22668C7.87962 2.40248 7.71423 2.50045 7.50101 2.5206C7.28686 2.54084 7.10841 2.47536 6.96565 2.32416C6.82297 2.17399 6.74194 1.97321 6.72256 1.72184Z" fill="#C77DFF"/>
<path d="M8.9124 0.50263L8.40298 2.63531L8.76973 2.74268L9.55178 1.63498C9.6946 1.4222 9.79248 1.25513 9.84542 1.13378C9.83726 1.26824 9.84775 1.46703 9.87689 1.73016L10.0594 3.12022L10.4289 3.22837L10.9383 1.09568L10.6871 1.02214L10.4093 2.18515C10.3385 2.48161 10.2955 2.69975 10.2803 2.83957L10.1109 1.47881C10.0734 1.19839 10.0595 0.98587 10.0691 0.841237L9.78026 0.756683C9.72221 0.891386 9.61567 1.06865 9.46063 1.28846L8.70308 2.37787C8.7523 2.24801 8.81232 2.03485 8.88314 1.7384L9.16094 0.575385L8.9124 0.50263Z" fill="#C77DFF"/>
<path d="M11.4842 1.42078L10.4059 3.27589L11.6551 4.16577L11.7942 3.92644L10.7822 3.20555L11.4507 2.05549C11.4231 2.13706 11.4041 2.2199 11.3938 2.304C11.3843 2.38867 11.3857 2.4818 11.3983 2.58342C11.4108 2.68504 11.4373 2.78257 11.4777 2.876C11.5189 2.96999 11.5823 3.06572 11.6677 3.16318C11.7532 3.26065 11.8583 3.34894 11.9831 3.42806L12.129 3.17709C11.9923 3.09192 11.8793 2.99438 11.7901 2.88447C11.7016 2.77512 11.6396 2.66201 11.6039 2.54516C11.5691 2.42887 11.553 2.31252 11.5557 2.19612C11.5586 2.08114 11.579 1.96641 11.6169 1.85194L12.595 2.5487L12.7334 2.31066L11.4842 1.42078Z" fill="#C77DFF"/>
<path d="M13.1566 2.70024L11.6535 4.14848L12.0877 4.70083C12.1869 4.82693 12.2899 4.92824 12.3967 5.00477C12.5035 5.0813 12.6068 5.13139 12.7064 5.15503C12.8067 5.17945 12.9069 5.1835 13.0071 5.1672C13.1071 5.15235 13.2014 5.11997 13.2899 5.07006C13.379 5.02093 13.4648 4.95664 13.5472 4.87719C13.6297 4.79774 13.6991 4.71256 13.7553 4.62165C13.8122 4.53152 13.8545 4.43227 13.8823 4.32391C13.91 4.217 13.9199 4.1069 13.9119 3.99361C13.9045 3.8811 13.8739 3.76099 13.8202 3.63329C13.7665 3.50559 13.69 3.37869 13.5909 3.25259L13.1566 2.70024ZM13.1508 3.12395L13.3862 3.42333C13.5601 3.64459 13.6399 3.85934 13.6255 4.06759C13.6112 4.27584 13.5191 4.46177 13.3493 4.62538C13.2661 4.7055 13.1807 4.76473 13.0929 4.80306C13.0051 4.84139 12.9155 4.85777 12.8239 4.8522C12.7322 4.84807 12.639 4.8162 12.5442 4.75659C12.4501 4.69775 12.3586 4.61185 12.2698 4.49891L12.0344 4.19952L13.1508 3.12395Z" fill="#C77DFF"/>
<path d="M14.5199 4.6478L12.7831 5.72933L12.9214 6.00151L14.6582 4.91998L14.5199 4.6478Z" fill="#C77DFF"/>
<path d="M14.9185 5.34226L13.2539 6.83337L13.3634 7.21774L15.5 7.38296L15.4059 7.05287C15.3582 7.04909 15.3161 7.04445 15.2796 7.03893C15.2433 7.03439 15.2017 7.02634 15.1547 7.0148C15.1079 7.00423 15.0668 6.99117 15.0313 6.97561C14.9952 6.96135 14.9575 6.9417 14.9183 6.91667C14.8791 6.89164 14.8451 6.86265 14.8163 6.8297C14.7866 6.79706 14.7588 6.75731 14.7328 6.71047C14.7068 6.66362 14.6856 6.61134 14.6692 6.55364C14.6527 6.49593 14.6429 6.43916 14.6396 6.38331C14.6366 6.32844 14.6388 6.2782 14.6462 6.2326C14.6527 6.18731 14.6658 6.14132 14.6855 6.09465C14.7047 6.04925 14.7247 6.00891 14.7458 5.9736C14.7671 5.93928 14.7944 5.90231 14.8278 5.86268C14.8603 5.82337 14.8901 5.78985 14.9172 5.76211C14.9436 5.73566 14.9753 5.70525 15.0121 5.67088L14.9185 5.34226ZM14.6224 6.02151C14.4755 6.21155 14.4315 6.40975 14.4903 6.61612C14.5485 6.82053 14.6871 6.95389 14.9059 7.01619L13.9335 6.94284C13.7537 6.93573 13.6111 6.94145 13.5056 6.95999C13.6244 6.88946 13.7439 6.80257 13.8641 6.6993L14.6224 6.02151Z" fill="#C77DFF"/>
<path d="M6.51242 8.00994C6.51242 8.8073 7.15271 9.43379 7.96763 9.43379C8.78254 9.43379 9.42283 8.8073 9.42283 8.00994C9.42283 7.21259 8.78254 6.5861 7.96763 6.5861C7.15271 6.5861 6.51242 7.21259 6.51242 8.00994Z" fill="#F9F9F9"/>
<path d="M6.86167 6.55762C6.89078 6.55762 6.91988 6.55762 6.91988 6.55762C7.0654 6.55762 7.18182 6.47219 7.21092 6.32981C7.29823 5.95961 7.47286 5.64636 7.7639 5.39007C8.28777 4.87749 9.01538 4.70662 9.74298 4.87749C9.8885 4.90596 10.0631 4.82053 10.0922 4.67815C10.1213 4.53576 10.034 4.3649 9.8885 4.33643C8.98627 4.10861 8.02584 4.3649 7.35644 4.99139C7.00719 5.33312 6.77436 5.76027 6.65794 6.2159C6.62884 6.35829 6.71615 6.52915 6.86167 6.55762Z" fill="#F9F9F9"/>
<path d="M5.98855 7.78213C6.04676 7.78213 6.10497 7.78213 6.13407 7.72518C6.27959 7.63975 6.3087 7.46888 6.22138 7.3265C6.01765 7.01325 5.93034 6.64305 5.93034 6.27285C5.93034 5.56093 6.3087 4.90596 6.94899 4.53576C7.09451 4.50729 7.12361 4.30795 7.0654 4.19404C6.97809 4.05166 6.80347 4.02318 6.65794 4.08013C5.84303 4.53576 5.34826 5.39007 5.34826 6.30133C5.34826 6.78544 5.49378 7.24107 5.72661 7.63975C5.78482 7.72518 5.90124 7.78213 5.98855 7.78213Z" fill="#F9F9F9"/>
<path d="M6.13407 9.29141C6.16317 9.29141 6.19228 9.29141 6.19228 9.29141C6.3378 9.29141 6.45422 9.20598 6.48332 9.06359C6.51242 8.92121 6.42511 8.75034 6.27959 8.72187C5.90124 8.63644 5.58109 8.46558 5.31916 8.18081C4.76618 7.6967 4.59155 6.98478 4.76618 6.27285C4.79528 6.13047 4.70797 5.95961 4.56245 5.93113C4.38783 5.90265 4.2423 5.98809 4.2132 6.13047C3.98037 7.01325 4.2423 7.95299 4.88259 8.60796C5.23184 8.94968 5.66841 9.1775 6.13407 9.29141Z" fill="#F9F9F9"/>
<path d="M7.58928 10.2027C7.7348 10.1172 7.7639 9.94637 7.67659 9.80399C7.58928 9.6616 7.41465 9.63313 7.26913 9.71856C6.94899 9.9179 6.57063 10.0033 6.19228 10.0033C5.46468 10.0033 4.79528 9.63313 4.41693 9.00664C4.38783 8.86425 4.1841 8.83577 4.06768 8.89273C3.92216 8.97816 3.89306 9.14902 3.95126 9.29141C4.41693 10.0888 5.29005 10.5729 6.22138 10.5729C6.71615 10.5729 7.18182 10.4305 7.58928 10.2027Z" fill="#F9F9F9"/>
<path d="M9.07358 9.46227C8.92806 9.43379 8.75344 9.51922 8.72434 9.6616C8.63702 10.0318 8.4624 10.3451 8.17136 10.6013C7.64748 11.1139 6.89078 11.3133 6.19228 11.1139C6.04676 11.0854 5.87213 11.1709 5.84303 11.3133C5.81393 11.4556 5.90124 11.6265 6.04676 11.655C6.27959 11.7119 6.48332 11.7404 6.71615 11.7404C7.41465 11.7404 8.08404 11.4841 8.57881 11C8.92806 10.6583 9.1609 10.2311 9.27731 9.77551C9.30642 9.6616 9.2191 9.49074 9.07358 9.46227Z" fill="#F9F9F9"/>
<path d="M9.80119 8.26624C9.65567 8.35167 9.62656 8.52253 9.71387 8.66491C9.9176 8.97816 10.0049 9.34836 10.0049 9.71856C10.0049 10.4305 9.62656 11.0855 8.98627 11.4556C8.84075 11.5411 8.81165 11.7119 8.86986 11.8543C8.92806 11.9398 9.01538 11.9967 9.13179 11.9967C9.19 11.9967 9.2191 11.9967 9.27731 11.9682C10.0922 11.5126 10.587 10.6583 10.587 9.74704C10.587 9.26293 10.4415 8.8073 10.2086 8.40862C10.1213 8.23776 9.9176 8.18081 9.80119 8.26624Z" fill="#F9F9F9"/>
<path d="M9.80119 6.72848C9.65567 6.70001 9.48104 6.78544 9.45194 6.92782C9.42283 7.07021 9.51015 7.24107 9.65567 7.26955C10.034 7.35498 10.3542 7.52584 10.6161 7.81061C11.14 8.32319 11.3437 9.06359 11.14 9.74704C11.1109 9.88942 11.1982 10.0603 11.3437 10.0888C11.3728 10.0888 11.4019 10.0888 11.431 10.0888C11.5474 10.0888 11.6638 10.0033 11.7221 9.88942C11.9549 9.00664 11.693 8.0669 11.0527 7.41193C10.7034 7.07021 10.2669 6.84239 9.80119 6.72848Z" fill="#F9F9F9"/>
<path d="M11.984 6.72848C11.5183 5.93113 10.6452 5.44702 9.71387 5.44702C9.2191 5.44702 8.75344 5.58941 8.34598 5.81722C8.20046 5.90265 8.17136 6.07352 8.25867 6.2159C8.34598 6.35829 8.52061 6.38676 8.66613 6.30133C8.98627 6.10199 9.36462 6.01656 9.74298 6.01656C10.4706 6.01656 11.14 6.38676 11.5183 7.01325C11.5765 7.09868 11.6638 7.15564 11.7803 7.15564C11.8385 7.15564 11.8676 7.15564 11.9258 7.12716C12.0131 7.04173 12.0713 6.87087 11.984 6.72848Z" fill="#F9F9F9"/>
</g>
<defs>
<clipPath id="clip0_308_183">
<rect width="16" height="16" rx="8" fill="white"/>
</clipPath>
</defs>
</svg>
