<svg width="16" height="16" viewBox="0 0 16 16" fill="none" xmlns="http://www.w3.org/2000/svg">
<rect width="16" height="16" rx="8" fill="#12130F"/>
<path d="M5.5 8C5.59472 8 5.68556 7.96236 5.75253 7.89539C5.81953 7.82842 5.85714 7.73758 5.85714 7.64286C5.85714 7.54814 5.81953 7.45731 5.75253 7.39031C5.68556 7.32333 5.59472 7.28572 5.5 7.28572C5.40528 7.28572 5.31444 7.32333 5.24747 7.39031C5.18047 7.45731 5.14286 7.54814 5.14286 7.64286C5.14286 7.73758 5.18047 7.82842 5.24747 7.89539C5.31444 7.96236 5.40528 8 5.5 8ZM5.85714 10.5C5.85714 10.5947 5.81953 10.6856 5.75253 10.7525C5.68556 10.8195 5.59472 10.8571 5.5 10.8571C5.40528 10.8571 5.31444 10.8195 5.24747 10.7525C5.18047 10.6856 5.14286 10.5947 5.14286 10.5C5.14286 10.4053 5.18047 10.3144 5.24747 10.2475C5.31444 10.1805 5.40528 10.1429 5.5 10.1429C5.59472 10.1429 5.68556 10.1805 5.75253 10.2475C5.81953 10.3144 5.85714 10.4053 5.85714 10.5ZM3 5.14286C3 4.57453 3.22578 4.0295 3.62764 3.62764C4.0295 3.22578 4.57453 3 5.14286 3H10.8571C11.4255 3 11.9705 3.22578 12.3724 3.62764C12.7742 4.0295 13 4.57453 13 5.14286V10.8571C13 11.4255 12.7742 11.9705 12.3724 12.3724C11.9705 12.7742 11.4255 13 10.8571 13H5.14286C4.57453 13 4.0295 12.7742 3.62764 12.3724C3.22578 11.9705 3 11.4255 3 10.8571V5.14286ZM4.78572 4.42858C4.691 4.42858 4.60017 4.46619 4.53317 4.53317C4.46619 4.60017 4.42858 4.691 4.42858 4.78572C4.42858 4.88044 4.46619 4.97128 4.53317 5.03825C4.60017 5.10522 4.691 5.14286 4.78572 5.14286H11.2143C11.309 5.14286 11.3998 5.10522 11.4668 5.03825C11.5338 4.97128 11.5714 4.88044 11.5714 4.78572C11.5714 4.691 11.5338 4.60017 11.4668 4.53317C11.3998 4.46619 11.309 4.42858 11.2143 4.42858H4.78572ZM5.5 8.71428C5.78417 8.71428 6.05669 8.60142 6.25761 8.40047C6.45855 8.19953 6.57142 7.92703 6.57142 7.64286C6.57142 7.35869 6.45855 7.08617 6.25761 6.88525C6.05669 6.68431 5.78417 6.57142 5.5 6.57142C5.21583 6.57142 4.94331 6.68431 4.74239 6.88525C4.54144 7.08617 4.42858 7.35869 4.42858 7.64286C4.42858 7.92703 4.54144 8.19953 4.74239 8.40047C4.94331 8.60142 5.21583 8.71428 5.5 8.71428ZM6.57142 10.5C6.57142 10.2158 6.45855 9.9433 6.25761 9.74239C6.05669 9.54144 5.78417 9.42858 5.5 9.42858C5.21583 9.42858 4.94331 9.54144 4.74239 9.74239C4.54144 9.9433 4.42858 10.2158 4.42858 10.5C4.42858 10.7842 4.54144 11.0567 4.74239 11.2576C4.94331 11.4586 5.21583 11.5714 5.5 11.5714C5.78417 11.5714 6.05669 11.4586 6.25761 11.2576C6.45855 11.0567 6.57142 10.7842 6.57142 10.5ZM7.28572 7.64286C7.28572 7.73758 7.32333 7.82842 7.3903 7.89539C7.4573 7.96236 7.54814 8 7.64286 8H11.2143C11.309 8 11.3998 7.96236 11.4668 7.89539C11.5338 7.82842 11.5714 7.73758 11.5714 7.64286C11.5714 7.54814 11.5338 7.45731 11.4668 7.39031C11.3998 7.32333 11.309 7.28572 11.2143 7.28572H7.64286C7.54814 7.28572 7.4573 7.32333 7.3903 7.39031C7.32333 7.45731 7.28572 7.54814 7.28572 7.64286ZM7.64286 10.1429C7.54814 10.1429 7.4573 10.1805 7.3903 10.2475C7.32333 10.3144 7.28572 10.4053 7.28572 10.5C7.28572 10.5947 7.32333 10.6856 7.3903 10.7525C7.4573 10.8195 7.54814 10.8571 7.64286 10.8571H11.2143C11.309 10.8571 11.3998 10.8195 11.4668 10.7525C11.5338 10.6856 11.5714 10.5947 11.5714 10.5C11.5714 10.4053 11.5338 10.3144 11.4668 10.2475C11.3998 10.1805 11.309 10.1429 11.2143 10.1429H7.64286Z" fill="#FCFFFC"/>
</svg>
